<mxfile host="app.diagrams.net" modified="2021-05-10T20:42:53.245Z" agent="5.0 (Windows NT 10.0; Win64; x64) AppleWebKit/537.36 (KHTML, like Gecko) Chrome/90.0.4430.93 Safari/537.36" etag="PBGlugqEwB_B3pSQUOj3" version="14.6.11" type="github">
  <diagram id="42nAeBY5ltI8XaT_0Y52" name="Page-1">
    <mxGraphModel dx="868" dy="1582" grid="1" gridSize="10" guides="1" tooltips="1" connect="1" arrows="1" fold="1" page="1" pageScale="1" pageWidth="850" pageHeight="1100" math="0" shadow="0">
      <root>
        <mxCell id="0" />
        <mxCell id="1" parent="0" />
        <mxCell id="we5ksyu7aV5o7LYmEZMr-11" value="" style="rounded=0;whiteSpace=wrap;html=1;fillColor=#f5f5f5;strokeColor=#666666;fontColor=#333333;&#xa;&lt;img src=&quot;https://i.pinimg.com/736x/c6/a8/6e/c6a86e41f9f3ce4b3b8fe2c930c5b3b4.jpg&quot;" vertex="1" parent="1">
          <mxGeometry x="30" y="-980" width="800" height="720" as="geometry" />
        </mxCell>
        <mxCell id="3QXAhMcdUUcTTvY7QrrD-12" value="" style="rounded=0;whiteSpace=wrap;html=1;fillColor=#d0cee2;strokeColor=#56517e;" parent="1" vertex="1">
          <mxGeometry x="30" y="-110" width="810" height="950" as="geometry" />
        </mxCell>
        <mxCell id="3QXAhMcdUUcTTvY7QrrD-1" value="" style="rounded=0;whiteSpace=wrap;html=1;" parent="1" vertex="1">
          <mxGeometry x="50" y="550" width="780" height="270" as="geometry" />
        </mxCell>
        <mxCell id="3QXAhMcdUUcTTvY7QrrD-2" value="" style="rounded=0;whiteSpace=wrap;html=1;" parent="1" vertex="1">
          <mxGeometry x="680" y="-10" width="130" height="360" as="geometry" />
        </mxCell>
        <mxCell id="3QXAhMcdUUcTTvY7QrrD-3" value="" style="rounded=0;whiteSpace=wrap;html=1;" parent="1" vertex="1">
          <mxGeometry x="270" y="-10" width="390" height="130" as="geometry" />
        </mxCell>
        <mxCell id="3QXAhMcdUUcTTvY7QrrD-4" value="" style="rounded=0;whiteSpace=wrap;html=1;" parent="1" vertex="1">
          <mxGeometry x="270" y="130" width="390" height="220" as="geometry" />
        </mxCell>
        <mxCell id="3QXAhMcdUUcTTvY7QrrD-7" value="" style="whiteSpace=wrap;html=1;aspect=fixed;" parent="1" vertex="1">
          <mxGeometry x="57.5" y="-20" width="185" height="185" as="geometry" />
        </mxCell>
        <mxCell id="3QXAhMcdUUcTTvY7QrrD-8" value="" style="rounded=0;whiteSpace=wrap;html=1;" parent="1" vertex="1">
          <mxGeometry x="50" y="390" width="780" height="130" as="geometry" />
        </mxCell>
        <mxCell id="3QXAhMcdUUcTTvY7QrrD-9" value="" style="ellipse;whiteSpace=wrap;html=1;aspect=fixed;" parent="1" vertex="1">
          <mxGeometry x="57.5" y="210" width="170" height="170" as="geometry" />
        </mxCell>
        <mxCell id="3QXAhMcdUUcTTvY7QrrD-10" value="" style="rounded=0;whiteSpace=wrap;html=1;" parent="1" vertex="1">
          <mxGeometry x="50" y="-90" width="750" height="60" as="geometry" />
        </mxCell>
        <mxCell id="3QXAhMcdUUcTTvY7QrrD-11" value="" style="rounded=0;whiteSpace=wrap;html=1;" parent="1" vertex="1">
          <mxGeometry x="80" y="180" width="120" height="20" as="geometry" />
        </mxCell>
        <mxCell id="we5ksyu7aV5o7LYmEZMr-1" value="" style="rounded=0;whiteSpace=wrap;html=1;" vertex="1" parent="1">
          <mxGeometry x="35" y="-480" width="505" height="210" as="geometry" />
        </mxCell>
        <mxCell id="we5ksyu7aV5o7LYmEZMr-2" value="" style="rounded=0;whiteSpace=wrap;html=1;" vertex="1" parent="1">
          <mxGeometry x="570" y="-480" width="250" height="210" as="geometry" />
        </mxCell>
        <mxCell id="we5ksyu7aV5o7LYmEZMr-3" value="" style="rounded=0;whiteSpace=wrap;html=1;" vertex="1" parent="1">
          <mxGeometry x="570" y="-520" width="250" height="30" as="geometry" />
        </mxCell>
        <mxCell id="we5ksyu7aV5o7LYmEZMr-4" value="" style="rounded=0;whiteSpace=wrap;html=1;" vertex="1" parent="1">
          <mxGeometry x="35" y="-520" width="505" height="30" as="geometry" />
        </mxCell>
        <mxCell id="we5ksyu7aV5o7LYmEZMr-5" value="" style="rounded=0;whiteSpace=wrap;html=1;" vertex="1" parent="1">
          <mxGeometry x="570" y="-920" width="250" height="380" as="geometry" />
        </mxCell>
        <mxCell id="we5ksyu7aV5o7LYmEZMr-7" value="" style="rounded=0;whiteSpace=wrap;html=1;" vertex="1" parent="1">
          <mxGeometry x="210" y="-960" width="450" height="30" as="geometry" />
        </mxCell>
        <mxCell id="we5ksyu7aV5o7LYmEZMr-8" value="" style="rounded=0;whiteSpace=wrap;html=1;" vertex="1" parent="1">
          <mxGeometry x="40" y="-920" width="520" height="180" as="geometry" />
        </mxCell>
        <mxCell id="we5ksyu7aV5o7LYmEZMr-9" value="" style="rounded=0;whiteSpace=wrap;html=1;" vertex="1" parent="1">
          <mxGeometry x="360" y="-730" width="200" height="190" as="geometry" />
        </mxCell>
        <mxCell id="we5ksyu7aV5o7LYmEZMr-10" value="" style="rounded=0;whiteSpace=wrap;html=1;" vertex="1" parent="1">
          <mxGeometry x="40" y="-730" width="310" height="190" as="geometry" />
        </mxCell>
      </root>
    </mxGraphModel>
  </diagram>
</mxfile>
